<svg id="Слой_1" data-name="Слой 1" xmlns="http://www.w3.org/2000/svg" viewBox="0 0 512 512"><defs><style>.cls-1{fill:#fff;}</style></defs><title>question-icon</title><circle class="cls-1" cx="256" cy="256" r="256"/><path d="M225.33,344.14q-.22-8.25-.23-12.38,0-24.28,6.88-41.95,5-13.29,16.28-26.82,8.25-9.85,29.68-28.77t27.86-30.14a48.6,48.6,0,0,0,6.42-24.53q0-24.08-18.8-42.3T247.34,119q-26.37,0-44,16.5t-23.16,51.58l-42.41-5q5.73-47,34-72t74.85-25q49.29,0,78.63,26.82t29.35,64.88a82.12,82.12,0,0,1-10.32,40.57Q334,235.94,304,262.53q-20.18,17.88-26.36,26.37a58.74,58.74,0,0,0-9.17,19.48q-3,11-3.44,35.76Zm-2.52,82.76v-47h47v47Z"/></svg>